HIERARCHY
ROOT Hips
{
	OFFSET	0	0	0
	CHANNELS 6  Xposition Yposition Zposition Xrotation Yrotation Zrotation
	JOINT Spine
	{
		OFFSET	0	6.86795	1.37906
		CHANNELS 3  Xrotation Yrotation Zrotation
		JOINT Spine1
		{
			OFFSET	0	11.7606	-2.1001
			CHANNELS 3  Xrotation Yrotation Zrotation
			JOINT Spine2
			{
				OFFSET	0	8.91491	0.955545
				CHANNELS 3  Xrotation Yrotation Zrotation
				JOINT Spine3
				{
					OFFSET	0	10.6685	3.17115
					CHANNELS 3  Xrotation Yrotation Zrotation
					JOINT Spine4
					{
						OFFSET	0	15.7927	-1.61708
						CHANNELS 3  Xrotation Yrotation Zrotation
						JOINT Neck
						{
							OFFSET	0	7.53935	-5.28175
							CHANNELS 3  Xrotation Yrotation Zrotation
							JOINT Head
							{
								OFFSET	0	9.05142	-2.70913
								CHANNELS 3  Xrotation Yrotation Zrotation
								End Site
								{
									OFFSET	0	18.8799	-0.913543
								}
							}
						}
					}
					JOINT LeftShoulder
					{
						OFFSET	-4.53621	19.1949	-9.05142
						CHANNELS 3  Xrotation Yrotation Zrotation
						JOINT LeftArm
						{
							OFFSET	-9.8955	-2.70912	3.47568
							CHANNELS 3  Xrotation Yrotation Zrotation
							JOINT LeftForeArm
							{
								OFFSET	-33.3495	-1.52213	2.38045
								CHANNELS 3  Xrotation Yrotation Zrotation
								JOINT LeftHand
								{
									OFFSET	-27.054	-1.86958	1.93108
									CHANNELS 3  Xrotation Yrotation Zrotation
									End Site
									{
										OFFSET	-9.87335	-0.682306	0.704704
									}
								}
							}
						}
					}
					JOINT RightShoulder
					{
						OFFSET	4.53621	19.1949	-9.05142
						CHANNELS 3  Xrotation Yrotation Zrotation
						JOINT RightArm
						{
							OFFSET	9.8955	-2.70912	3.47568
							CHANNELS 3  Xrotation Yrotation Zrotation
							JOINT RightForeArm
							{
								OFFSET	33.3495	-1.52213	2.38045
								CHANNELS 3  Xrotation Yrotation Zrotation
								JOINT RightHand
								{
									OFFSET	27.054	-1.86958	1.93108
									CHANNELS 3  Xrotation Yrotation Zrotation
									End Site
									{
										OFFSET	9.87335	-0.682306	0.704704
									}
								}
							}
						}
					}
				}
			}
		}
	}
	JOINT LeftUpLeg
	{
		OFFSET	-9.35843	-3.43397	-0.689532
		CHANNELS 3  Xrotation Yrotation Zrotation
		JOINT LeftLeg
		{
			OFFSET	-2.06148	-40.3938	-0.631444
			CHANNELS 3  Xrotation Yrotation Zrotation
			JOINT LeftFoot
			{
				OFFSET	-2.01493	-37.1416	3.19418
				CHANNELS 3  Xrotation Yrotation Zrotation
				JOINT LeftToeBase
				{
					OFFSET	0	-4.59973	-12.2169
					CHANNELS 3  Xrotation Yrotation Zrotation
					End Site
					{
						OFFSET	0	-1.83989	-7.35956
					}
				}
			}
		}
	}
	JOINT RightUpLeg
	{
		OFFSET	9.35843	-3.43397	-0.689532
		CHANNELS 3  Xrotation Yrotation Zrotation
		JOINT RightLeg
		{
			OFFSET	2.06148	-40.3938	-0.631444
			CHANNELS 3  Xrotation Yrotation Zrotation
			JOINT RightFoot
			{
				OFFSET	2.01493	-37.1416	3.19418
				CHANNELS 3  Xrotation Yrotation Zrotation
				JOINT RightToeBase
				{
					OFFSET	0	-4.59973	-12.2169
					CHANNELS 3  Xrotation Yrotation Zrotation
					End Site
					{
						OFFSET	0	-1.83989	-7.35956
					}
				}
			}
		}
	}
}
MOTION
Frames: 9
Frame Time: 0.020408
 93.9065 90.8171 -272.123 175.579 34.2678 171.41 180 179.997 -175.991 1.27495 0.00579012 6.68192 1.59933 0.0173704 6.68192 1.8274 0.00290773 4.00916 178.146 -179.957 -178.664 173.912 169.25 170.961 177.804 152.838 -179.893 178.777 162.805 178.108 173.651 -171.912 -111.279 1.35062 -25.5009 -1.29376 -0 3.14815 15.2594 1.19253 -19.1923 -1.78025 139.43 174.024 -105.841 18.644 102.389 -16.6142 -0 32.4127 -29.1213 158.981 148.043 -157.747 9.15798 -9.94495 -0.0860922 167.902 -179.967 -176.923 179.809 180 -180 179.155 167.843 -167.948 0.735506 -4.44401 0.0522983 173.561 -179.971 168.526 177.207 180 -180
 93.8292 90.6516 -272.192 175.593 33.7879 171.66 179.999 179.993 -175.974 1.30447 0.0148968 6.70978 1.60765 0.0446903 6.70978 1.79036 0.00748124 4.02587 178.289 -179.96 -178.659 174.162 170.492 170.483 177.963 154.612 179.752 178.835 159.268 178.311 175.497 -173.199 -111.675 1.48494 -26.4308 -0.875869 -0 3.12353 15.2794 1.23727 -19.5366 -1.83533 139.677 174.255 -105.79 16.9418 102.902 -14.8613 -0 33.1474 -29.5065 159.328 147.93 -158.433 9.19055 -9.97134 0.0545062 168.61 -179.982 -176.878 179.806 180 -180 178.991 167.825 -168.332 1.00949 -4.76992 0.261289 173.463 -179.967 168.53 177.159 180 -180
 93.9149 90.6815 -272.284 175.856 33.261 171.69 180 179.993 -175.948 1.36061 0.0138781 6.75401 1.64774 0.0416343 6.75401 1.77893 0.00697008 4.0524 178.422 -179.963 -178.65 174.407 171.292 170.194 178.089 155.745 179.527 178.864 157.289 178.417 176.806 -174.377 -111.776 1.66701 -26.5804 -0.661762 -0 3.20693 15.381 1.38007 -19.9908 -2.02993 140.028 174.611 -105.812 15.5791 103.335 -13.4936 -0 33.9569 -29.8484 159.969 147.767 -158.755 8.70076 -10.0007 0.0855992 168.509 -179.97 -176.785 179.803 180 -180 178.73 167.811 -168.608 1.24649 -5.14844 0.436467 174.24 -179.987 168.519 177.109 180 -180
 93.9582 90.4077 -272.586 176.302 31.8622 171.433 179.999 179.992 -175.949 1.40659 0.0165778 6.7525 1.69196 0.0497335 6.7525 1.80634 0.00832596 4.0515 178.445 -179.963 -178.65 174.382 171.754 170.07 178.107 156.464 179.419 178.995 156.898 178.611 178.545 -175.49 -111.818 1.8671 -26.4869 -0.596478 -0 3.26686 15.3351 1.42948 -20.5583 -2.07993 140.484 175.189 -105.993 14.4944 103.725 -12.4644 -0 34.8128 -30.2213 161.008 147.123 -159.324 8.06763 -9.92541 0.00226848 167.668 -179.979 -176.695 179.798 180 -180 178.5 167.813 -168.572 1.81089 -5.51665 0.471886 175.357 -179.963 168.522 177.058 180 -180
 94.117 90.4303 -272.594 176.633 31.2274 171.245 179.999 179.979 -175.949 1.44881 0.0413961 6.75125 1.72301 0.124188 6.75126 1.81968 0.0207905 4.05075 178.497 -179.965 -178.65 174.447 172.113 169.826 178.148 156.874 179.3 179.095 156.987 178.747 179.768 -176.56 -112.057 2.01236 -25.2195 -0.633217 -0 3.53814 15.4 1.47977 -21.0788 -2.1314 140.903 175.767 -106.064 13.4293 104.182 -11.4186 -0 35.7196 -30.6228 161.147 146.612 -159.029 7.55828 -9.79188 -0.0457976 167.277 -179.93 -176.622 179.792 180 -180 178.377 167.933 -168.337 2.39506 -6.26192 0.495262 175.064 -179.952 168.583 177.003 180 -180
 94.1433 90.7519 -272.438 176.788 30.6726 171.087 179.999 179.981 -175.938 1.46277 0.0386722 6.7693 1.71839 0.116017 6.76931 1.77125 0.0194229 4.06158 178.636 -179.968 -178.647 174.83 172.178 169.803 178.273 156.897 179.257 179.115 157.136 178.771 0.179371 -2.28644 67.798 2.0989 -23.8702 -0.811789 -0 3.81354 15.4543 1.45995 -21.7736 -2.07385 141.114 176.363 -106.171 12.3805 104.722 -10.1748 -0 36.6625 -31.0719 160.928 145.899 -158.767 7.26617 -9.56857 -0.308777 166.508 -179.939 -176.687 179.783 180 -180 178.385 168.01 -168.209 2.78013 -7.04835 0.368524 173.191 179.993 168.582 176.944 180 -180
 94.1435 90.8681 -272.55 176.968 29.8954 170.892 179.999 179.987 -175.904 1.47817 0.0256824 6.82584 1.73345 0.0770473 6.82584 1.77085 0.0128999 4.0955 178.664 -179.968 -178.635 174.905 172.082 169.758 178.292 156.671 179.26 179.083 157.022 178.73 0.76225 -1.25088 67.5102 2.22254 -23.5838 -0.835149 -0 3.97233 15.5743 1.41329 -22.4535 -1.97976 141.01 176.902 -106.456 10.5896 105.555 -8.37942 -0 37.7103 -31.4682 161.105 145.342 -158.987 6.63555 -9.38161 -0.068168 164.942 -179.985 -176.741 179.774 180 -180 178.638 168.126 -168.129 3.11544 -8.03688 0.322828 172.001 179.98 168.6 176.896 180 -180
 94.177 90.9778 -272.738 177.247 29.2979 170.615 179.999 179.993 -175.876 1.49395 0.0144009 6.87399 1.75047 0.0432026 6.874 1.77657 0.00723378 4.1244 178.679 -179.968 -178.626 174.936 172.082 169.806 178.302 156.707 179.268 179.04 156.979 178.671 1.05167 -0.370828 67.2024 2.33357 -23.6296 -0.764704 -0 3.97059 15.7485 1.38481 -22.8201 -1.92506 140.417 177.097 -106.865 8.70178 106.608 -6.506 -0 38.6379 -31.7214 161.655 144.937 -159.03 6.26328 -9.43073 0.0131998 164.034 -179.965 -176.766 179.768 180 -180 178.973 168.167 -167.993 3.36561 -8.93584 0.310821 171.086 179.982 168.592 176.85 180 -180
 94.2687 91.0305 -272.953 177.48 29.055 170.532 180 179.995 -175.865 1.49821 0.00920475 6.89105 1.76061 0.0276142 6.89105 1.79307 0.0046238 4.13463 178.648 -179.967 -178.622 174.821 172.257 169.678 178.275 156.927 179.219 179.193 156.996 178.883 1.22326 0.346966 67.1943 2.48212 -24.0744 -0.622052 -0 3.78306 15.9557 1.38343 -22.8886 -1.92037 140.081 177.268 -107.172 7.25679 107.484 -5.10036 -0 39.4748 -31.9443 161.76 144.755 -158.934 6.04977 -9.59254 -0.246548 163.867 -179.987 -176.804 179.765 180 -180 179.337 168.21 -167.94 3.49049 -9.85815 0.443839 170.481 179.97 168.585 176.809 180 -180
